/* XPM */
static char *de1f263b1a5c4f21c4a2b172b1b57dc7UVGVdl217dgjhZZW[] = {
/* columns rows colors chars-per-pixel */
"64 64 134 2 ",
"   c #1F130F",
".  c #220E0A",
"X  c #24130D",
"o  c #2A160E",
"O  c #2E180F",
"+  c #251713",
"@  c #2A1611",
"#  c #271811",
"$  c #2D1A13",
"%  c #2E1E19",
"&  c #331D15",
"*  c #381E15",
"=  c #321F19",
"-  c #362016",
";  c #3A2216",
":  c #35221B",
">  c #3B251C",
",  c #3D291E",
"<  c #342521",
"1  c #3A2720",
"2  c #3E2A22",
"3  c #412616",
"4  c #40261B",
"5  c #422A1D",
"6  c #4A2F1F",
"7  c #51311C",
"8  c #432D24",
"9  c #492F24",
"0  c #432E28",
"q  c #482F28",
"w  c #453126",
"e  c #4B3225",
"r  c #46322A",
"t  c #4B352B",
"y  c #4F392C",
"u  c #533520",
"i  c #593723",
"p  c #5C3B27",
"a  c #513729",
"s  c #533A2C",
"d  c #5A3D2D",
"f  c #4C3731",
"g  c #4D3932",
"h  c #543D33",
"j  c #593E32",
"k  c #513E39",
"l  c #57412D",
"z  c #5F422F",
"x  c #564136",
"c  c #5B4235",
"v  c #54413A",
"b  c #5C443A",
"n  c #5D483D",
"m  c #66432F",
"M  c #6A432D",
"N  c #624535",
"B  c #654836",
"V  c #61463A",
"C  c #644A3C",
"Z  c #6B4E3C",
"A  c #724B35",
"S  c #6D503E",
"D  c #73533D",
"F  c #594641",
"G  c #5E4941",
"H  c #604741",
"J  c #644D42",
"K  c #6A4F41",
"L  c #675146",
"P  c #6C5243",
"I  c #6C554B",
"U  c #735544",
"Y  c #765946",
"T  c #7C5A44",
"R  c #715649",
"E  c #755B4B",
"W  c #7A5D4B",
"Q  c #705750",
"!  c #745D52",
"~  c #7A5E51",
"^  c #7D614E",
"/  c #766053",
"(  c #7D6252",
")  c #7D6559",
"_  c #7E685E",
"`  c #825B44",
"'  c #815E49",
"]  c #83624E",
"[  c #826553",
"{  c #886650",
"}  c #866855",
"|  c #8C6B55",
" . c #81665A",
".. c #856A5B",
"X. c #8B6D5A",
"o. c #916B56",
"O. c #916F59",
"+. c #8E725E",
"@. c #92735D",
"#. c #98745C",
"$. c #95785E",
"%. c #836E65",
"&. c #896E61",
"*. c #867065",
"=. c #8E7362",
"-. c #8E7469",
";. c #937564",
":. c #997763",
">. c #967A65",
",. c #9B7B65",
"<. c #927769",
"1. c #94796A",
"2. c #9B7C6A",
"3. c #A17E69",
"4. c #9D816C",
"5. c #9B8175",
"6. c #98837B",
"7. c #A3826D",
"8. c #AB876F",
"9. c #A38572",
"0. c #A68A75",
"q. c #AA8A75",
"w. c #A5897A",
"e. c #AC8E7B",
"r. c #B2947C",
"t. c #B9967F",
"y. c #A48B82",
"u. c #AE9283",
"i. c #B59582",
"p. c #BB9A84",
"a. c #B0968B",
"s. c #BE9D88",
"d. c #C09D85",
"f. c #C2A08B",
/* pixels */
"X.B j h g t % X % r A A A ] ] #.$.4...b s y t w 8 t &.r.X.X.S e 7 8 = f 8 0 h f 0 1 * 4 q 8 q q d V A 3.K Z ..U ] &. .;.q.3.` U ",
"[ d b a h g : X # t A D { o.,.7.>.+.=.n x y g t w r ~ <.[ W B 8 3 t t j 8 : t 0 8 8 = * 9 q k h q d s I e j V d K ~ W o.&.~ X.~ ",
"V C j 9 n n - X $ r 4.+.| :.3.{ 4.^ c s x c n g 0 ; c ( C C k = > e e h 0 ; t f g f 8 ; b H J H h J j j 9 t t s N ~ ..U o.J c j ",
"h f j C h g $ % , L >.) } X.1.o.X.^ c l s x v t e - h W L H H g h b y y w 0 0 f t r 8 9 j } ! I H K J V C C b c b b J p i 9 a j ",
"0 0 g H v t - X : R R R y.u.<.O.<.^ S a q 8 f 8 ; @ 8 c x t r 2 e 8 w y 8 w 2 : : w w y J G G n L j n h j k h h 7 b x d 7 p h f ",
"g g v g h 8 : O > f j J K %._ W / C C e a q q 8 5 O > h t > < 2 > % > 2 > > & # : > > r 2 w t v H k k f r > 1 w 5 2 2 r 7 F g f ",
"% < < % : = O @ & 8 0 w f b k k j a Z a t q 1 8 0 - 4 8 w r v F v f w 1 : : = # % $ % 1 1 2 2 v y 0 : * : = % & # O : & $ & = % ",
"    + + # X @ O o + # # % : 2 0 v J I s t q 8 = 5 * > 2 f g g f g r w 0 w 0 > : : : 1 1 1 2 2 2 8 8 2 2 @ & & # O % # X % . . # ",
"% + % # # = @ @ & X o # $ : 1 2 x c C t 8 5 8 2 8 * 8 q q k k q r w 2 t r w > % % - : : - w , 2 8 2 : ; = 1 = = % % : > : $ # % ",
"k r t 0 * ; - & * * O @ % : < 1 e h c t 9 0 8 8 * * e 9 t v 0 = 1 1 > 1 , w , - - , - , - ; 2 2 , 0 ; > : * 0 8 w 2 r *.G r t r ",
"L s e C 0 & % & * & & O : 2 > > 5 a c c s 0 8 q = = 3 8 9 8 * * - - - - ; , , > , , - > - & , > > ; > 9 0 8 y g J I ! ;.( } 1.[ ",
"P e 9 b h w $ # = & ; > > 2 2 1 5 e z a 5 e t : * & 8 9 9 * * 4 ; - - - w l y y B C , ; - & w c h s b ) ) R  . .*.-.) I ) 6.a.1.",
"[ K s b g t : > - & 8 a n C n y B a e 4 ; > > 0 & @ 4 b j V V b y 6 w e c l x s l S l 5 - ; y P W D ( ( ) K R } 1.2.W N [ 1.w.~ ",
"Y a j V x h % : # o - s s P C C V s w 0 * * e 2 1 * 8 s  .[ O.&.( / P b L B U b C S l e 3 5 c P W W { [ Y U Z Y } [ W ;.9.4.P ..",
"N j J V v g > : & ; - y l R Y R P J j j t n t 0 r 0 w b ;.} [ Z ..1...^ E P b C n n e e Z S P R ^ | ] ] Y W N c P Y ..=.P B s d ",
"s 9 h V L J r 2 , > , s S U ^ ^ ~ .._ ! ! b t w t 0 e J ..[ X.[ +.,.>.X.1.( x x x r , 6 C b P ^ ^ O.D W } ;.B B i c Y c a s 8 e ",
"9 j V I G G t 0 2 2 , x / U S ^ / +.} ) ^ ) x r t 8 w P E Y U { ;...[ ..=._ v w 2 , > , a e b W W +.S E ....Z 6 3 V c e e t 5 3 ",
"q j H Q k t 2 2 , , , 6 C C ^ / S ( ^ R S I l l y 8 6 E U X.| W ' ] O.X.[ ..v 2 1 : > 2 c c V =.X.E R C ! I b 9 5 c s 5 > 3 e e ",
"8 q H %.H 0 2 0 w > - 5 e l D D Z ^ S I n L v r t 3 e 1.;.W Z D W ] | X.e.%.b % % % 1 2 c c R ^ ( C C b ! K j q 5 e 5 ; > 0 h h ",
"8 8 j K V 0 1 = - - - , e l ^ ( C / U S x n v l s 5 e w.>.' e.o.A W S Y [ I g : % < > > c d N Y / P l l L V t * - & - ; 5 3 t h ",
"q 8 j V a r 1 > : > - ; e y ^ } [ ..| ..n / l l s e a r.q.X.s.:.M ` O.[ ( P t @ $ $ O , t s B W E I e t C h q O & & - - ; 9 h a ",
"a 9 h j t f 1 2 : > - , s l ^ ^  .=.;.@...^ L x s 5 s 0.i.O.i.3.A A .. .R h 0 # # # O ; e d I Y b b e g t 0 8 $ = : : > u e h s ",
"q q 8 5 t > = 2 > > , y x x b S ..4.1.5.0.D n l a e u ;.@.[ p.8.` M { X.P b 9 X o @ - 3 h x v h r f r f t 8 = $ = * 5 r a a y t ",
"8 q 8 8 8 > = 2 > : - - ; , 6 6 P ..Y ..:.B l l a 5 a D Z D ,.;.[ R D Z d h > . X O - ; s y t t w r 2 0 1 8 > = 2 8 8 w y 6 e 0 ",
"* 8 q 9 8 > > w 1 : : > , 5 3 5 s [ =.>.1.P x y 5 ; 7 7 Y q.7.X.X.` K B 6 5 * X @ X * 3 a t a y q q 1 * & & = & 2 8 8 8 8 9 q 8 ",
"h q b q 8 & : 2 1 1 , , 5 e c C z Y >.+.&.C c d > 3 m D O.f.d.0.Y Y W ] a 3 * X . * & 9 5 > 5 8 q 0 * o O * * & * * * * t q a 9 ",
"b j j k g : 1 2 w 5 , , 6 5 s c E [ W W ( E C c 5 3 B | ] O.p.d.[ Y T Y N V & . $ = & a a e e 8 q q 8 8 8 9 * * 8 2 8 h V I &. .",
"R k j h y < > r r , ; ; > ; 5 e c ^ =.V W [ P d 6 i m l p U o.#.8.W ' [ ] h = o X = 8 R :.O.E K J b s a 9 8 9 a j b R ..+.W +.;.",
"R j y h y 8 1 2 t , - - ; ; ; e e R >.Y ( ( W B N T 7 7 7 O.#.3.q.2.B _ ! t % $ + 2 ) 6.[ o.U Y ] &.X.C C N 8 e l l } 7.@.Y @.>.",
" .I j b f 2 r r , > ; ; , 6 > a a B | Z :.[ Z B Z ^ T i M | t.3.' C h c g v < + < g y.-.2.=.} ` ;.2.;.C c V 9 8 l ( 4.4.4.| @.S ",
":.Q a b 0 * g r 2 , - - 6 y e 5 9 d P W <.R Y U } S Y ^ ] O.O.' B d H y 2 k <   + r y.2.1.X.O.' ..2.@.E J j a 0 , / | 4.@.@.{ ^ ",
"K 4 ; k r > v g r , - - y x w > e s W $.2.E X.[ Y ^ [ 9.4.$.O.D { ] b k r g %   + k 2.:.] :.T { { 2.=.U j h 9 , > l q.q.| $.^ z ",
"7 8 * f 8 0 h f r : * 3 9 8 w w d N Z 9.K Z  .Y ] ;.} @.q.3.` U X.B j h g f % + = r A M A ] [ ,.@.9...b s g r 0 8 r &.r.X.X.S e ",
"5 t t j 8 > r 0 q 8 * * 8 t v x 9 j a K a j B s K ~ W o.&.~ X.~ [ d V a y k * . # t A T o.o.:.3.,.;.=.c j s h t 9 e ( <.[ W B 8 ",
"; t 0 h 0 : r f f f 8 * c H G F j K b h 9 a a s j ~ ..U X.C c c V K d q G b = X $ t 4.O.o.:.,.} ,.^ c s c v F f 0 > c ( C C j & ",
"j c t s e 0 0 f q f 8 9 N  .! I J J J V V V v x b H J p i 9 y h y t j H g h % $ 1 J >.) [ X.:.X.+.^ x l s k j g 9 ; s E L H H f ",
"r 0 0 t w w 2 ; : q 0 t L G G G J b b k v h h h u V k d 7 p g g w 0 g H v t : X > R R R w.u.<.+.=.( S y w , t w ; O 8 x x r 0 2 ",
"> & > 5 > ; % # : 1 > q r 2 g v H j j t r , , w > 8 2 t u F g t g g v g j 2 - O : t j J L %._ Y / C Z e y t r 8 5 O > v t , 1 w ",
"v g r > : : = $ = @ * 1 1 2 2 g t 0 : = - - % - X O : - $ & = % % < < % : & # O = 8 w w f v v x x y S a e w : 8 0 ; 1 2 2 r k F ",
"g r w w 0 0 1 = : = 1 1 1 2 2 2 8 0 1 2 @ % & @ # % # X # X X X     + # # o # O o # # # % < 1 r x C I s t e 0 ; 5 * 1 2 g g g f ",
"w 2 , t r r , % % - > : - 2 2 , 2 2 = ; : : : : : % : : : $ o % % + < + o = # & @ o X o % : < w j b J a 8 8 8 2 2 = 8 t r g k w ",
"2 2 > > , 2 , : - , : , : , 2 , , 8 > > : - 8 8 w 2 w *.G r f t k 2 g 2 = ; = & & * o @ % : < , r j j q q 8 8 8 * ; e e t b 0 : ",
": - - - - , , ; 5 5 ; > - - ; , > ; > 0 0 0 t h H Q ! =.( } >. .Z d t n 0 & & % ; = & O - 1 : : 5 e c z f 9 8 0 * & ; 8 8 8 > * ",
"> O ; > w l y l c n 5 ; ; & 6 c h s n (  .I  .) &.-.) R ) 6.a.1.P e e n h w $ # & - 3 > > 2 8 2 9 e z e 8 9 q 1 = & 4 e 9 * * > ",
"l 2 e e c l x d c C s 5 ; ; y P W Y ~ ~ [ P R | <.2.W N ..1.w.( ( K s b h t % > & & 2 t b J b h V e e 3 * 3 > 8 = O 4 b c V b V ",
"( / S c S n P c C L l e > 5 c P W T ] } E U C R  .[ W ;.4.2.P X.R a j H k g : : # O ; a s P B B V s e w = * 9 2 1 * 8 s [ [ O...",
" .1.} / ^ P b S C C u e Z P P R ^ o.{ ' Y W B m D Y ..=.P C s s B j C V c h 1 : & > - s z R Y R P J j j f G f t q 8 9 V -.X.[ K ",
"+.4.4...-./ x x g e 5 w C c P W ^ @.D W } =.B N a N Y c a a 6 e d 9 s H K H r 2 > > > h S P ^ ^ ( .._ ! ! b 0 0 f q q H ..] X.{ ",
"@.} ] } ;.) v w w > : 1 y e B W ^ +.S E  ...S 6 > C c 6 e a 5 ; 0 j b I G F f w 2 , , c / P U ^ W <.} [ ^ ) x r y w w S E Y U { ",
"^ ] +.+.[ ) v 2 1 1 > 2 c c b =...^ P S / P c 6 5 c y 5 ; > t e q b H Q v r 2 2 2 , , 6 C C E ^ S ( ^ R P I x r y 5 e E U X.| W ",
"' [ | X.e.*.b % + % 2 1 c c R ^ ^ V V b / P x t 5 6 6 ; > 8 h j 8 q H ..G w 2 w 2 , - ; 6 c D S Z T U I n L x y e , e 1.=.T Z Z ",
"A W Z W ( I g = % > 1 > c s B E ! P j h L b t - - & - > 5 3 t h 8 8 n B b w < : , : - , e l ^ ( C / Y P x C x g y 5 e 0.2.] r.o.",
"M T O.[ ^ P r & $ $ @ , y d B ^ Q R a a H y q & & O : : ; 9 x a t 8 j j y r , > : > ; ; w s ^ [ ( X.}  .C / x l s e a u.q.X.s.#.",
"A A  ...R h 0 # O o & ; e d I P F F 9 a g q * & : - * > a e y y a q k j y y , 1 : : ; , l l ^ ^ _ =.>.+. .^ L x s 5 s 0.i.X.i.3.",
"` M { X.P b q X X O & 3 s x h x f r q f q 8 * @ - : 5 w a e s y q 9 9 9 e , : , : > , l x x c S ..4.<.4.0.D C s t e e :.@.{ p.8.",
"[ U D Z j h > . X o - ; s y t t r r 2 q 1 0 1 = 2 0 0 w a 6 e w 8 q 4 8 2 , % , > : - % - 6 6 6 S ..^ } >.B z l a 5 s A Z Y ,.;.",
"X.` K N 9 3 = X o X & 3 a t y t t t : * = = * = 1 8 4 8 w w w , * > q a 8 1 = q , : - > > 5 , 3 i [ ;.>.1.P c a 6 ; 7 7 ^ q.7.+.",
"W U W ] i 3 * X X & & 9 5 4 5 8 0 0 * & @ * & & = ; * > t t y t j t k q 9 $ = 8 , , , , 5 e c C c Y >.*...C c d 3 3 N A O.f.p.9.",
"} U W Y N B %   & & & a e e e 8 9 9 8 8 4 9 * * 8 4 8 h N R ..} j j F j f * 1 0 w , , , 5 6 y c E ( W W ( E C c 3 3 B | ] | t.d.",
"9.T ] ] ^ v : + X & 8 U :.@.E S J b a d 9 9 9 t j c R ..+.W +.;.I j h h t 2 : 0 t , ; ; > ; 5 e c [ =.B ^ ( U d 6 i N l p Y O.@.",
"q.2.B ..Q f % + + 0 ) 6.} | U U ] &.&.B C c 9 e j c ..9.@.D $.>.R j h h g 2 > 2 t , - & 3 ; > e e P 2.Y ( ( Y B N T 7 7 i | #.7.",
"' C j j f F < + < g y.1.2.;.| ` @.2.;.V c N 8 9 a  .,.4.4.| $.S  .I h b h 2 r w , > - - 5 8 3 t s B | Z 1.[ Z C S W Y p m | t.3.",
"m d J t 2 F <   + r 6.2.:.X.X.' X.2.=.R K j t r 5 / | $.@.@.[ W >.R s v w : g r 0 , = & 8 h e 5 5 s P W :.P Y P | R Y T W #.O.` ",
"{ ] b h 2 g % + + k 3.:.~ :.T { { 2.=.R j j 9 4 > x 0.q.| $.] B K 4 ; k w 1 v g w , * ; a j 9 4 e d W ;.4.Y +.[ U W [ 8.3.;.#.D "
};
