/* XPM */
static char *bigger[] = {
/* columns rows colors chars-per-pixel */
"64 64 58 1 ",
"  c #211E1A",
". c #26221E",
"X c #28261E",
"o c #2A2621",
"O c #2D2A24",
"+ c #312C26",
"@ c #332E29",
"# c #343027",
"$ c #36312B",
"% c #3A342E",
"& c #3D382F",
"* c #3C3630",
"= c #3F3932",
"- c #403732",
"; c #433C34",
": c #463F38",
"> c #474037",
", c #484137",
"< c #474038",
"1 c #4C443C",
"2 c #4F483E",
"3 c #50473F",
"4 c #50493F",
"5 c #4E4740",
"6 c #4F4841",
"7 c #504740",
"8 c #544C43",
"9 c #584F46",
"0 c #574F48",
"q c #584F48",
"w c #575046",
"e c #595147",
"r c #575048",
"t c #5C544A",
"y c #5F584D",
"u c #60574D",
"i c #61594E",
"p c #655C51",
"a c #685F53",
"s c #6B6155",
"d c #6D6459",
"f c #70675B",
"g c #73695D",
"h c #756C61",
"j c #786F62",
"k c #7C7265",
"l c #7E7469",
"z c #817667",
"x c #80766A",
"c c #847A6C",
"v c #887E6E",
"b c #867C70",
"n c #897E71",
"m c #8C8274",
"M c #8E8479",
"N c #918677",
"B c #91877A",
"V c #93887A",
/* pixels */
"@+$=--::-:::::::**$@@+O$;5555550yyyr055-*Oo@*::5577557655::**%$@",
"%*ybbMMlMMMMMMMlcllha;@=phllblllllhhddllu@o:lncncljhlllljhdddlls",
"=*yhhhddppdpppypiiyps5@$yyyypyyyyttyrpdlp*o7xbjhdauytttuyuytypas",
"=%yyyyrtrrrrrrrrrttta6@@yryyr0000000yrydq%o7lljhdaut07qtuyttrrry",
"==pyrrrrrrrrr06rwwwts6@@yyyrr606676600ry9#X:ggggaut75:58rrrrr00t",
"==pyyyrrrrrrrr666retp5@$ryyrrr666707000y4#O3fsggaq75:::70000000r",
"*:pytrtrqqrrrr068rtyp1+$yyyyrr06006000tt4$o,aasapq7:::::5560600t",
"@=pyttrr88666650rtyyp1+$rryyrrr60706000y4OO;aiiitqq51155:56000rt",
"@=pyytew8511144etuiii1O%4ieu9u99700099tp:+O-iuuuuuua4114556000uu",
"@=pyyytw55,1144tuaaie;O%4puuuuuu00qqtuuu-$o-uiuuiiif414e00000yuy",
"@%wsytw252114tuiiaiu4&X=4upiuuuuuuuuuua7;$O-4iuuiii4tutiyutututr",
"++,iieww788444448782>$O+::44::,,:::1:777::+:4uuuuuu1uute00655:1:",
"@$*<>==&&>&&-&&#*--*-+O+-;-$###$%%-$-$--::O+-:1,1,,&+;%#@+++@@%@",
"gdddiw&+###%&-,49qt088993:::#O-4q7887:::::------+XX+#%;,18tpdhlh",
"hllnlky1#wafjzmmcxzjxbvvnnnza#4jzzzcnbxxczzzggi4;$4sfgcxljllbnnl",
"ytryyap2+2djfspeq9789tiszgffi;4sadffdssppaffdfp4;#4aaiiitttqttyy",
"r0q0qta6+5apq84332224eisssai4-4iiiiaiiiit4t44tty;#,4teet444t4ttt",
"066000a6+5pt7787434138eiaaai2-4iiiiaiiiayt444t4i;+,ute444444444e",
"06560rir+5y077e98444138eiiuu,-2ietieeiait444t4ty>O>4eeee444444tt",
"06660ryr@-uy98et9887318e4tti1>,4e444444ittt44twy>O-ite44444444t4",
"00000tyr@*8py00yu444849uuuti:;;944,,2,444444wwwt#O&yee44422244te",
"ttrtrtp0@*:qyrrrtuu49449utt4:;-94e4444444e4e2w4t#O&ttee4w4wwiitt",
"885555t6@*:70qrrtt4u4tteeet3,-*744e44eeteyieeee6&O&4yeeeewwew224",
"$$@$$*==+*--=:::14444,11111,,%-:4e4422444,,,;,,,##%>,,>=;&&&#%##",
"@ooo ... .@$@@@@##OOOX+O++#%*+==,#&######OOOO+##X&&#O##O###O#+++",
"t*@=5ryyr5@rpaddsai4;X+++++++o@%###XX&,ei4&X#pbl,vkggspipsfhjjhd",
"h**rhlhddd6yllhlgga41&4egjgfdt8ysie8gzzzhh2X=ddspggzzzmmbcbcbxkh",
"p*=0hdpyyyy5phfdfsiu,&4mzjgghddsssgsfsuuyp8X,yytyyyyiyttyyyyyyyy",
"t**rdapyypyy0rpyiai4,&efiiyuauttyyuye4uuty4O,iywiyiiiyeetwwyyyyy",
"t**0apppyyyryr6r4uii,&4aupaasutytew4344tyy4O,yeiyiiii4yettyttyyy",
"y*$6pppyyrr0rrt0uiii,#4iuuiayete02414etutt4O,2syyyiitytttyyyttty",
"t*%5pypyrrr0000ru4u4>#tittttee07224444e4titX#tyeiaaiitiiyyytetty",
"u--:puuaue8444eeuui8%&eueeee9943254888wtti4#&sitippiiiiiiiat4tii",
"t--7puuiieeee4eeuui:#-eeu9ee8433224788ttyi4#,a4taapppiiia44444yi",
"q-:quupiaiueeeeeuiu:#;tt94844843<<48ettyyp2&,eytiaaappiy44444yyy",
"8-:appuuiiiiaaiaase4&;ue99494983248eeeyeii4#&;iyyiapapitt44444yy",
"7--73;--,:3444,448ee#;iu9ueetee988wwe4w4et4#,444444442,,<>%+22ee",
":%%%-+++########&-;;.-e:::11:;--%$%#$&&&,,,#;4,&&&######@+Oo#&&=",
":77q9:-###X###&##+##O++++OOOOOo++$#OOO+##;4442,&&#&&,,22;o+*<111",
"xxcbzzzsu3;4szze-+-zzz43auuuiiasdfffds2#2sgjmmNNmmNmmmmjs%$jlmmc",
"affgdpppasssgggi:O3szsevvzzzvzzzkkkgff,#4aadgggzkflcczjfy:%fjjhf",
"iiapiiiiiueisggi3X3e4;auiuuueee444494t&O4yyiie44eyetyyyyp<%pffpy",
"uuuiiuutueeeiasa-X4eu4ueuee449e994444i-+4yiii44,28wweeyyp<%phfpy",
"u9tpiuuqe4e4eesa-X,u,,euuue44eeeu4444t-+4iiy44,21124wetty1$yfdry",
"ut4iuuu9ee4eeeui;X-;u3eetue428wwte444u-+4ia4442,111288typ1$ystrr",
"44u44u4ue44eeeuu:X%uee4eeee9447weue44e%X,ps4444412228wtyp1$yy8rr",
"utu4u4uiaeeeeeue:#-8eee499ee8888eue944#X,iap4444w48wwetyp5$rprrr",
"tu4uuuuuaieeeii:-X-48ee;444488w8eee9e1#X,4p4iyyteeewettty5@8sttr",
"ututttttutuutu,--+&;,;;%-;::><1544t44-#X-1eeteeew4448wwew4@0pete",
",,,;;-;;;;;;;&##OX$$$#@+O+@@@$==,,,,>;#X#;;,,;;-&;&,;>,,11#;>-=;",
"$$#+OOOoXXX+##---;<<,--%$%$++$###%###-##++###+#$%$%+#$$#%#OOOO+@",
"2&$$@+%7asgkzzmmmNmNNmvvvvzgt*+;szgi44eeu444u4%@#,idgjgdiypdhfdp",
"mncht%-fjjkkjkjjkkzxvczzkzkfe>O=fmNNmmmmkjzzzvt+%2fgjkkccclbMMBM",
"hljha:%qayy4tyiiuuasfgduuuis2;o;iuuuisi4ttutugi+$4sssiaiadaadddd",
"ytyyq:*7y4et4iiiyttuiapteeta1%X8it4444441444quq@$essiuiipyypytty",
"eqqyq:@7iyeyityiueeuuuye98eu>#Ot4411114,,144eqt%@yiiiuyttetye000",
"q0quq:%7i4ettetuuytupuuew70y:+@tt44444445158qqq*$uutquut000qq800",
"99qtq:@7ieetteetuuyuuauyt00p1+%tt44e44ee6060qtq*%uu00000225880qe",
"qqtuq:@:ueete0qetttttyyyttqu7@*q44444eee0000uuq%%uu0qqrr75780ttt",
"qqtu8-@-eeeee00ette99eeyytty8*@5iti4tete000piq7*%tpuq0rte0etttyt",
"tyuu:=+@:989q99eetteqttyttty7*O:teeretttrtutyr5@%0yyurrrtttttyyt",
"qqq0--@*-33799ee9te99qetttte:*+-58864w2266605:-@@100tryr0000qttq",
"<---%-%@-::11<;<:;;-*--;;;><:@@%<1>:==&&*$$**@@OO@$*:15:=*$$*55:",
"*%*%%%+@$&%%*%%@+OOOoOOOOOOOOO+@**%%%%%#@OoOoOOO+o+@++OOoooooO@$"
};
